<?xml version="1.0" encoding="UTF-8" standalone="no"?>
<svg
   xmlns:dc="http://purl.org/dc/elements/1.1/"
   xmlns:cc="http://creativecommons.org/ns#"
   xmlns:rdf="http://www.w3.org/1999/02/22-rdf-syntax-ns#"
   xmlns:svg="http://www.w3.org/2000/svg"
   xmlns="http://www.w3.org/2000/svg"
   xmlns:sodipodi="http://sodipodi.sourceforge.net/DTD/sodipodi-0.dtd"
   xmlns:inkscape="http://www.inkscape.org/namespaces/inkscape"
   version="1.1"
   id="svg10"
   width="180"
   height="180"
   viewBox="0 0 180 180"
   sodipodi:docname="Logotipo-N.svg"
   inkscape:version="1.0.2-2 (e86c870879, 2021-01-15)"
   inkscape:export-filename="D:\Proyectos\Logotipo\N_white.png"
   inkscape:export-xdpi="96"
   inkscape:export-ydpi="96">
  <metadata
     id="metadata16">
    <rdf:RDF>
      <cc:Work
         rdf:about="">
        <dc:format>image/svg+xml</dc:format>
        <dc:type
           rdf:resource="http://purl.org/dc/dcmitype/StillImage" />
        <dc:title />
      </cc:Work>
    </rdf:RDF>
  </metadata>
  <defs
     id="defs14" />
  <sodipodi:namedview
     pagecolor="#ffffff"
     bordercolor="#666666"
     borderopacity="1"
     objecttolerance="10"
     gridtolerance="10"
     guidetolerance="10"
     inkscape:pageopacity="0"
     inkscape:pageshadow="2"
     inkscape:window-width="1920"
     inkscape:window-height="1017"
     id="namedview12"
     showgrid="false"
     inkscape:zoom="1.1790947"
     inkscape:cx="117.28164"
     inkscape:cy="-46.555447"
     inkscape:window-x="-8"
     inkscape:window-y="-8"
     inkscape:window-maximized="1"
     inkscape:current-layer="layer1"
     inkscape:pagecheckerboard="true"
     inkscape:document-rotation="0" />
  <g
     inkscape:groupmode="layer"
     id="layer4"
     inkscape:label="Fondo Blanco"
     style="display:none">
    <rect
       style="fill:#ffffff;fill-opacity:1;stroke-width:0.615847"
       id="rect864"
       width="181.3394"
       height="182.47588"
       x="-2.0789461"
       y="-1.607717"
       inkscape:export-xdpi="96"
       inkscape:export-ydpi="96" />
  </g>
  <g
     inkscape:groupmode="layer"
     id="layer1"
     inkscape:label="N"
     style="display:inline">
    <path
       style="fill:#ffffff;fill-opacity:1;stroke:#ffffff;stroke-width:1.03913px;stroke-linecap:butt;stroke-linejoin:miter;stroke-opacity:1"
       d="m 45.748555,13.432273 c 0,0 29.703619,-2.158145 30.552293,19.423391 L 39.242049,127.81444 128.07001,6.3411947 c 0,0 20.3682,-4.6246117 25.46025,17.5735463 0,0 -45.54555,94.650459 -44.69687,118.698469 0,0 0.32076,10.01036 7.21374,11.94692 0,0 9.47686,6.39738 56.71976,-58.347231 0,0 3.11181,-1.387384 2.40458,2.928921 -0.70724,4.31631 -13.2959,57.80768 -51.76916,76.76861 0,0 -71.147248,11.71569 -22.207,-104.516306 0,0 -67.045309,89.717546 -75.249166,100.508306 L 4.1634905,163.26982 c 0,0 -3.1780885,-0.0111 0.5657834,-13.87385 C 5.3690323,147.02709 45.748555,13.432273 45.748555,13.432273 Z"
       id="path22"
       sodipodi:nodetypes="ccccccccsccccsc"
       inkscape:export-xdpi="96"
       inkscape:export-ydpi="96" />
  </g>
</svg>
